<?xml version="1.0" encoding="UTF-8"?>
<svg id="Layer_1" xmlns="http://www.w3.org/2000/svg" version="1.1" viewBox="0 0 115.8 122.9">
  <!-- Generator: Adobe Illustrator 30.2.1, SVG Export Plug-In . SVG Version: 2.1.1 Build 1)  -->
  <defs>
    <style>
      .st0 {
        fill: #fff;
        fill-rule: evenodd;
      }
    </style>
  </defs>
  <path class="st0" d="M89.6,14v7.7h12.2c3.8,0,7.3,1.6,9.9,4.1,2.5,2.5,4.1,6,4.1,9.8h0v73.3h0s0,0,0,0c0,3.8-1.6,7.3-4.1,9.9-2.5,2.5-6,4.1-9.8,4.1h0s0,0,0,0h-61.7c-3.8,0-7.3-1.6-9.9-4.1-2.5-2.5-4.1-6-4.1-9.8h0v-16.4h-12.2c-3.8,0-7.3-1.6-9.9-4.1C1.6,85.9,0,82.4,0,78.6h0V14h0s0,0,0,0c0-3.8,1.6-7.3,4.1-9.9C6.6,1.6,10.1,0,13.9,0h0s0,0,0,0h61.7c3.8,0,7.3,1.6,9.9,4.1,2.5,2.5,4.1,6,4.1,9.8h0ZM79,21.7v-7.7h0s0,0,0,0c0-.9-.4-1.8-1-2.4-.6-.6-1.5-1-2.4-1h0s0,0,0,0H13.9c-.9,0-1.8.4-2.4,1s-1,1.5-1,2.4h0v64.6h0s0,0,0,0c0,.9.4,1.8,1,2.4.6.6,1.5,1,2.4,1h0s0,0,0,0h12.2v-46.3h0s0,0,0,0c0-3.9,1.6-7.3,4.1-9.9,2.5-2.5,6-4.1,9.8-4.1h0s0,0,0,0h38.9ZM105.2,108.9V35.7h0s0,0,0,0c0-.9-.4-1.8-1-2.4-.6-.6-1.5-1-2.4-1h0s0,0,0,0h-61.7c-.9,0-1.8.4-2.4,1s-1,1.5-1,2.4h0v73.3h0s0,0,0,0c0,.9.4,1.8,1,2.4.6.6,1.5,1,2.4,1h0s0,0,0,0h61.7c.9,0,1.8-.4,2.4-1s1-1.5,1-2.4h0s0,0,0,0Z"/>
</svg>