<?xml version="1.0" encoding="UTF-8"?>
<svg id="_Слой_1" xmlns="http://www.w3.org/2000/svg" version="1.1" viewBox="0 0 800 800">
  <!-- Generator: Adobe Illustrator 30.2.1, SVG Export Plug-In . SVG Version: 2.1.1 Build 1)  -->
  <defs>
    <style>
      .st0 {
        stroke-width: 30px;
      }

      .st0, .st1, .st2 {
        fill: #fff;
      }

      .st0, .st2 {
        stroke: #fff;
        stroke-miterlimit: 10;
      }

      .st2 {
        stroke-width: 32px;
      }
    </style>
  </defs>
  <g>
    <path class="st1" d="M-2224-448.4v29.7c-5.4,43.8-22,84.1-53.4,115.5l-174.1,173.9c-33.5,33.5-77.1,49.6-124.2,51.5-51.9,2.1-102.1-18.1-137.9-55.7-20.1-21-18.8-54.6,2.3-74.1,20.3-18.8,52.7-18.9,72.6,0,34.9,33.3,85,30.5,118.5-3l165.9-166.4c31.4-31.5,30.1-82.7-.8-113.2-30.4-30-81.2-30.9-112.2,0l-100.1,99.8c-4,4-10.2,5.9-15.6,3.8-28.4-11.2-57.3-16.8-88.1-16.5-5.9,0-11.6-2.8-13.8-7.4-2.3-4.6-2-11.3,2.4-15.7l140.7-140.3c53-52.9,131.8-68.6,202.5-39.7,64.1,26.3,108,87.1,115.3,157.6v.2Z"/>
    <path class="st1" d="M-2821,179.9h-31.3c-91.2-9.2-164-79.3-171.2-173-4.2-53.7,15.8-107.2,54.3-145.7l170-170c73.2-73.2,193.2-72.1,264.9,2.5s18.5,51.2,0,70.9c-20,21.2-54.2,22.6-75.3,2.4-32.9-31.5-83.2-31.6-115.5.8l-169.2,169.5c-31.8,31.8-30,84.6,2.9,114.8,31.1,28.5,80.1,28.2,110-1.8l100.8-100.7c4.4-4.4,10.8-5.4,16.5-3.1,28,11.1,56.8,16.3,87.2,16.1,6.5,0,12.3,3.1,14.3,8.6s.7,10.7-3.6,15l-140.5,140.3c-31.4,31.4-71.4,47.6-114.1,53.3h-.2Z"/>
  </g>
  <g>
    <path class="st2" d="M630,707.4v-307.2c0-14.9,11.6-25.2,24.9-25.6,13.7-.4,26.3,10.3,26.3,25.6v306.4c0,42.6-34.3,76.8-76.9,76.8H93.5c-42.6,0-76.8-34.3-76.8-76.8V195.7c0-42.6,34.2-76.8,76.8-76.8h306.4c14.8,0,25.2,11.7,25.6,24.8.4,13.8-10.3,26.3-25.6,26.3H93.4c-14.4,0-25.7,11.3-25.7,25.8v510.8c0,14.4,11.3,25.8,25.8,25.8h510.8c13.4,0,25.7-10.2,25.7-24.9h0Z"/>
    <path class="st2" d="M731.9,104.3l-364.8,364.8c-10.4,10.4-26,9.9-36,.5-9.4-9-11.4-25.4-.9-35.9L696,67.9l-168.1-.2c-14.5,0-25.2-11.6-25.5-24.8-.4-13.8,10.3-26.3,25.6-26.3h229.9c14.3,0,25.6,11.4,25.6,25.6v229.9c0,14.6-11.7,25.2-24.8,25.6s-26.1-10.4-26.3-25.5l-.3-167.9h-.1Z"/>
  </g>
  <path class="st0" d="M-343.4-1078.5L-933.3-488.6c-12.1,12.1-28.6,14.3-41.4,3.1s-14-29-2-41.1l592.6-592.7h-475.9c-16.9-.2-28.9-12.8-29.4-27.8s11.6-29.8,29.3-29.8H-327.6c23.3,0,41.8,18.6,41.9,41.9v532.4c0,16.9-12.9,29-28,29.3-15.8.4-29.5-11.8-29.5-29.4v-475.8h-.2Z"/>
</svg>