<svg xmlns="http://www.w3.org/2000/svg"
     viewBox="0 0 1000 1000">
    <path d="M744.7 474.9c-115.6 14.8-189.5 127.6-157.3 239C524.3 756.6 480 819 459.2 891.1l-323-.7C63.9 890.2 7 829.8 3.6 758.9l.7-627.2C4.3 60.8 65.8.6 135.7.5L438.5 0c37 0 70 14.6 96 40.2L704 207.9c24.8 25.4 40.2 57.4 40.3 93.5l.3 173.4Zm-206.6-78.4c25.3 0 41.3-23.1 39.8-44.3-1.5-22.2-19.2-38.8-42.9-38.8H212.8c-25 0-43.1 19.3-42.5 42.9.6 22.2 18.4 40.4 42.6 40.4l325.1-.2ZM376.3 576.9c25.1 0 41-23.4 39.2-44.7-1.8-22-19.6-38.3-42.7-38.3H212.7c-24.6 0-43 19.1-42.5 42.4.5 22.4 18.5 40.9 42.5 40.9l163.6-.4ZM935.7 1000l-341.1-.4c-41.1 0-66.2-44.2-55.4-80.8 17.3-58.3 54.2-105.6 106.4-137.3 65.7 69.8 176.3 69.9 242.1 0 53.1 32.6 91.7 82.1 106.9 142.4 9.2 36.8-18.6 76.1-59 76ZM748 558.8c58.3-10.6 111.1 28.4 121 84.3s-27.9 110.1-84.4 120.1c-55.1 9.8-109-26.6-119.9-82-11-55.9 24.4-111.8 83.3-122.5"
          style="fill:#898989"/>
</svg>