<svg width="17" height="17" viewBox="0 0 17 17" fill="none" xmlns="http://www.w3.org/2000/svg">
<path fill-rule="evenodd" clip-rule="evenodd" d="M8.5 0C3.80375 0 0 3.89996 0 8.715C0 12.5714 2.43313 15.8286 5.81187 16.9834C6.23688 17.0596 6.39625 16.7982 6.39625 16.5694C6.39625 16.3624 6.38563 15.6761 6.38563 14.9462C4.25 15.3493 3.6975 14.4124 3.5275 13.9222C3.43187 13.6717 3.0175 12.8982 2.65625 12.6912C2.35875 12.5278 1.93375 12.1247 2.64563 12.1138C3.315 12.103 3.79312 12.7457 3.9525 13.0071C4.7175 14.3253 5.93938 13.9549 6.42813 13.7261C6.5025 13.1596 6.72563 12.7784 6.97 12.5605C5.07875 12.3426 3.1025 11.5909 3.1025 8.25746C3.1025 7.3097 3.43187 6.52535 3.97375 5.9153C3.88875 5.69743 3.59125 4.80414 4.05875 3.60583C4.05875 3.60583 4.77063 3.37706 6.39625 4.49912C7.07625 4.30303 7.79875 4.20499 8.52125 4.20499C9.24375 4.20499 9.96625 4.30303 10.6463 4.49912C12.2719 3.36617 12.9838 3.60583 12.9838 3.60583C13.4513 4.80414 13.1537 5.69743 13.0687 5.9153C13.6106 6.52535 13.94 7.29881 13.94 8.25746C13.94 11.6018 11.9531 12.3426 10.0619 12.5605C10.37 12.8328 10.6356 13.3557 10.6356 14.1728C10.6356 15.3384 10.625 16.2753 10.625 16.5694C10.625 16.7982 10.7844 17.0705 11.2094 16.9834C14.5669 15.8286 17 12.5605 17 8.715C17 3.89996 13.1962 0 8.5 0Z" fill="white"/>
</svg>
