<svg width="17" height="17" viewBox="0 0 17 17" fill="none" xmlns="http://www.w3.org/2000/svg">
<path fill-rule="evenodd" clip-rule="evenodd" d="M17 8.5C17 13.1944 13.1944 17 8.5 17C3.80558 17 0 13.1944 0 8.5C0 3.80558 3.80558 0 8.5 0C13.1944 0 17 3.80558 17 8.5ZM8.61401 5.07615C9.43817 5.06366 10.2347 5.36765 10.8316 5.92565L12.4821 4.30785C11.437 3.34592 10.0499 2.81706 8.61401 2.83372C6.42827 2.83372 4.42958 4.04143 3.44823 5.95697C2.62841 7.55799 2.62837 9.44453 3.44811 11.0456C4.42946 12.959 6.42827 14.1667 8.61401 14.1667C10.1731 14.1667 11.488 13.6649 12.4459 12.7987L12.4449 12.7979C13.5382 11.811 14.1666 10.3538 14.1666 8.63034C14.1666 8.24515 14.1348 7.85788 14.0668 7.47893H8.61414V9.66099H11.7366C11.607 10.3647 11.1907 10.9873 10.5811 11.3829V11.3842C10.0631 11.729 9.39469 11.9242 8.61613 11.9242C7.108 11.9242 5.82927 10.9269 5.37045 9.58602L5.36849 9.58601C5.12634 8.88225 5.12634 8.11973 5.36849 7.41597C5.82532 6.07325 7.10605 5.07615 8.61401 5.07615Z" fill="white"/>
</svg>
