<svg width="17" height="17" viewBox="0 0 17 17" fill="none" xmlns="http://www.w3.org/2000/svg">
<path d="M17 7.93561V9.06441C16.9746 8.99964 16.9522 9.3988 16.9377 9.51814C16.4519 13.5262 13.2098 16.6508 9.1825 16.9708C9.14289 16.974 9.08798 16.9852 9.06537 16.999H7.90342C3.66396 16.6394 0.288101 13.3304 0.0149114 8.99862C-0.00684859 8.6542 -0.00429859 8.28496 0.0193314 7.93493C0.308161 3.66385 3.72295 0.273029 7.99607 0.0154788C12.4778 -0.254481 16.4424 3.03638 16.9484 7.56892C16.9617 7.68758 16.9709 7.81814 16.9998 7.93544L17 7.93561ZM11.2716 9.73064C11.1265 9.58529 10.892 9.61113 10.7674 9.73659L9.85689 10.6534C9.59696 10.9152 9.18556 10.9456 8.88313 10.7335C7.88013 10.0298 7.01466 9.18001 6.29301 8.19095C6.06589 7.87968 6.10686 7.46794 6.37223 7.20155L7.29975 6.26995C7.44187 6.12715 7.44255 5.89391 7.29788 5.74907L5.72283 4.17385C5.57442 4.02544 5.34271 4.02544 5.19906 4.1696L4.66832 4.70272C4.08964 5.28395 3.87731 6.13888 4.12364 6.93176C4.75774 8.97363 6.41762 10.8239 8.20398 11.9515C8.82873 12.3457 9.46776 12.6315 10.175 12.8408C10.9831 13.0798 11.836 12.8642 12.4334 12.2713L12.871 11.8369C13.0051 11.7037 13.0111 11.4716 12.8712 11.3317L11.2716 9.73064Z" fill="white"/>
</svg>
