<svg width="17" height="17" viewBox="0 0 17 17" fill="none" xmlns="http://www.w3.org/2000/svg">
<path fill-rule="evenodd" clip-rule="evenodd" d="M17 8.5C17 13.1944 13.1944 17 8.5 17C3.80558 17 0 13.1944 0 8.5C0 3.80558 3.80558 0 8.5 0C13.1944 0 17 3.80558 17 8.5ZM8.80469 6.27507C7.97794 6.61895 6.3256 7.33068 3.84768 8.41027C3.4453 8.57028 3.23452 8.72682 3.21533 8.87988C3.1829 9.13856 3.50684 9.24042 3.94796 9.37913C4.00796 9.39799 4.07014 9.41754 4.13388 9.43826C4.56787 9.57934 5.15167 9.74438 5.45517 9.75094C5.73046 9.75689 6.03773 9.64339 6.37696 9.41045C8.69216 7.84763 9.88727 7.0577 9.96231 7.04067C10.0152 7.02865 10.0886 7.01355 10.1383 7.05772C10.188 7.1019 10.1831 7.18556 10.1778 7.208C10.1458 7.34481 8.87417 8.52698 8.21613 9.13876C8.01099 9.32948 7.86547 9.46476 7.83573 9.49566C7.76909 9.56487 7.70118 9.63034 7.63591 9.69326C7.23271 10.0819 6.93036 10.3734 7.65265 10.8494C7.99975 11.0781 8.2775 11.2673 8.5546 11.456C8.85721 11.6621 9.15904 11.8676 9.54956 12.1236C9.64906 12.1888 9.74408 12.2566 9.83663 12.3225C10.1888 12.5736 10.5052 12.7992 10.8961 12.7632C11.1232 12.7423 11.3578 12.5287 11.477 11.8917C11.7586 10.3864 12.3121 7.12474 12.44 5.78069C12.4512 5.66293 12.4371 5.51223 12.4258 5.44607C12.4145 5.37992 12.3908 5.28566 12.3048 5.21588C12.203 5.13325 12.0457 5.11582 11.9754 5.11706C11.6557 5.12269 11.1652 5.29325 8.80469 6.27507Z" fill="white"/>
</svg>
