<?xml version="1.0" encoding="UTF-8"?>
<svg id="_Слой_1" data-name="Слой 1" xmlns="http://www.w3.org/2000/svg" viewBox="0 0 96 21">
  <defs>
    <style>
      .cls-1 {
        fill: #56575a;
      }

      .cls-2 {
        fill: #f6f6f7;
      }
    </style>
  </defs>
  <path class="cls-2" d="M0,5.5C0,2.74,2.24.5,5,.5h20c2.76,0,5,2.24,5,5v10c0,2.76-2.24,5-5,5H5c-2.76,0-5-2.24-5-5V5.5Z"/>
  <path class="cls-2" d="M34,5.5c0-2.76,2.24-5,5-5h20c2.76,0,5,2.24,5,5v10c0,2.76-2.24,5-5,5h-20c-2.76,0-5-2.24-5-5V5.5Z"/>
  <path class="cls-1" d="M10.83,5.66h2.16v6.12c0,2.76-1.31,3.72-3.4,3.72-.51,0-1.17-.09-1.59-.23l.24-1.77c.3.1.68.17,1.11.17.91,0,1.48-.42,1.48-1.91v-6.11ZM14.87,13.1c.57.3,1.48.6,2.4.6,1,0,1.52-.42,1.52-1.06,0-.59-.46-.95-1.61-1.35-1.59-.57-2.65-1.47-2.65-2.89,0-1.65,1.38-2.9,3.63-2.9,1.09,0,1.88.22,2.45.49l-.48,1.75c-.37-.19-1.07-.46-1.99-.46s-1.39.45-1.39.93c0,.62.53.89,1.78,1.38,1.69.63,2.47,1.52,2.47,2.9,0,1.62-1.22,3-3.85,3-1.09,0-2.18-.3-2.72-.6l.44-1.8Z"/>
  <path class="cls-1" d="M43.74,4.64c0,.08.2,2.43.45,5.22.25,2.79.46,5.15.46,5.26l.02.18,2.16.6,2.16.6.43-.12c.24-.06,1.2-.33,2.15-.59,1.47-.41,1.73-.49,1.75-.58.03-.13.93-10.42.93-10.59v-.12h-10.52v.14ZM52.32,6.91c-.02.13-.16,1.64-.31,3.38-.15,1.73-.28,3.16-.29,3.17-.02.03-2.64.75-2.72.75-.05,0-1.48-.39-2.46-.67l-.27-.08-.06-.7c-.03-.39-.07-.86-.1-1.05l-.03-.33h.67c.75,0,.73-.01.74.45,0,.12.02.3.03.41l.03.19.73.19.73.19.72-.19c.4-.11.73-.2.73-.2,0,0,.04-.32.07-.7.03-.38.07-.76.09-.84l.03-.14h-4.58l-.03-.12c-.02-.06-.05-.37-.07-.69l-.04-.57h4.81l.03-.36c.02-.2.05-.5.07-.67.02-.22.02-.3-.03-.28-.03.02-1.17.02-2.54,0l-2.48-.03-.03-.38c-.02-.21-.05-.51-.06-.66l-.03-.28h6.7l-.03.22Z"/>
</svg>