<svg width="23" height="23" viewBox="0 0 23 23" fill="none" xmlns="http://www.w3.org/2000/svg">
<g clip-path="url(#clip0_123_146)">
<path d="M19.1667 0H3.83333C1.71624 0 0 1.71624 0 3.83333V19.1667C0 21.2838 1.71624 23 3.83333 23H19.1667C21.2838 23 23 21.2838 23 19.1667V3.83333C23 1.71624 21.2838 0 19.1667 0Z" fill="#3A3A3A"/>
<path d="M19.9621 7.85832C20.0867 7.98291 20.1346 8.20332 20.1538 8.37582C20.24 9.29582 20.2304 11.1262 20.1538 12.0558C20.1442 12.1996 20.1154 12.3433 20.0579 12.4775L12.3433 20.1442L7.94459 20.125C7.65709 19.9717 7.59 19.6842 7.67625 19.3775L19.1858 7.81041C19.3967 7.62832 19.7704 7.67624 19.9621 7.85832Z" fill="white"/>
<path d="M12.0367 2.85583C12.3146 2.90375 12.5925 3.17208 12.6021 3.46917V8.74L8.73042 12.6117L8.52917 12.6979H3.44042C3.14334 12.6979 2.78876 12.3913 2.78876 12.1038V8.74H8.19376C8.34709 8.74 8.67292 8.38542 8.67292 8.26083V2.85583H12.0367Z" fill="white"/>
</g>
<defs>
<clipPath id="clip0_123_146">
<rect width="23" height="23" fill="white"/>
</clipPath>
</defs>
</svg>
