<?xml version="1.0" encoding="UTF-8"?>
<svg id="_Слой_1" data-name="Слой_1" xmlns="http://www.w3.org/2000/svg" version="1.1" viewBox="0 0 96 21">
  <!-- Generator: Adobe Illustrator 30.2.1, SVG Export Plug-In . SVG Version: 2.1.1 Build 1)  -->
  <defs>
    <style>
      .st0, .st1, .st2, .st3 {
        fill: #56575a;
      }

      .st0, .st2, .st3 {
        stroke: #56575a;
        stroke-miterlimit: 10;
      }

      .st0, .st3 {
        stroke-width: .2px;
      }

      .st4 {
        fill: #e3e3e3;
      }

      .st2 {
        stroke-width: .4px;
      }

      .st5 {
        fill: #f6f6f7;
      }

      .st3 {
        fill-rule: evenodd;
      }
    </style>
  </defs>
  <path class="st5" d="M0,5.4C0,2.7,2.2.4,5,.4h20c2.8,0,5,2.2,5,5v10.1c0,2.8-2.2,5-5,5H5c-2.8,0-5-2.2-5-5V5.4Z"/>
  <path class="st1" d="M10.8,5.6h2.2v6.2c0,2.8-1.3,3.7-3.4,3.7s-1.2,0-1.6-.2l.2-1.8c.3.1.7.2,1.1.2.9,0,1.5-.4,1.5-1.9v-6.1ZM14.9,13.1c.6.3,1.5.6,2.4.6s1.5-.4,1.5-1.1-.5-1-1.6-1.4c-1.6-.6-2.6-1.5-2.6-2.9s1.4-2.9,3.6-2.9,1.9.2,2.4.5l-.5,1.8c-.4-.2-1.1-.5-2-.5s-1.4.4-1.4.9.5.9,1.8,1.4c1.7.6,2.5,1.5,2.5,2.9s-1.2,3-3.9,3-2.2-.3-2.7-.6l.4-1.8Z"/>
  <path class="st5" d="M96,15.6c0,2.8-2.2,5-5,5h-52c-2.8,0-5-2.2-5-5V5.4c0-2.8,2.2-5,5-5h52c2.8,0,5,2.2,5,5v10.1Z"/>
  <polygon class="st4" points="67.1 4.5 68.1 4.7 65 16.4 64 16.1 67.1 4.5"/>
  <path class="st2" d="M84.3,12.9c.4,0,.8-.5.8-.9,0-.5-.4-.9-.9-.9h0c-.5,0-.8.4-.8.9,0,.2.1.5.2.6-.5,1.1-1.3,1.9-2.5,2.5-.8.5-1.6.6-2.5.5-.7,0-1.2-.4-1.6-1-.5-.8-.5-1.7-.1-2.5.3-.6.7-1.1,1-1.3,0-.2-.2-.6-.2-.8-2.2,1.7-2,4-1.3,5.1.5.8,1.5,1.3,2.7,1.3s.6,0,.9-.1c2-.4,3.4-1.6,4.3-3.5ZM87,10.9c-1.2-1.4-2.9-2.2-4.8-2.2h-.2c-.1-.3-.4-.5-.7-.5h0c-.5,0-.8.4-.8.9,0,.5.4.9.9.9h0c.3,0,.6-.2.7-.6h.3c1.2,0,2.3.4,3.3,1.1.8.5,1.3,1.2,1.6,2.1.3.7.2,1.3,0,1.9-.4.9-1.1,1.3-2.1,1.3s-1.2-.2-1.5-.3c-.2.2-.5.4-.7.6.7.3,1.3.5,2,.5,1.5,0,2.6-.9,3-1.7.4-.9.4-2.6-.7-3.9ZM79.2,13.2c0,.5.4.9.9.9h0c.5,0,.8-.4.8-.9,0-.5-.4-.9-.9-.9h0s0,0-.1,0c-.6-1.1-.9-2.3-.8-3.6,0-1,.4-1.8.9-2.5.4-.6,1.3-.9,1.9-.9,1.6,0,2.3,2.1,2.4,3,.2,0,.5.2.8.2-.2-2.6-1.7-4-3.2-4s-2.6,1.1-3.1,2.6c-.7,2.1-.2,4.1.6,5.6,0,.1-.1.3-.1.5Z"/>
  <g>
    <path class="st0" d="M50.3,10.5c0-.7-.6-1.2-1.3-1.2s-1.3.6-1.3,1.2.6,1.2,1.3,1.2,1.3-.6,1.3-1.2Z"/>
    <path class="st3" d="M53.1,8.2c.3-1.1.6-3-.6-3.7-1.2-.7-2.7.6-3.5,1.4-.8-.8-2.4-2-3.6-1.3-1.2.7-.8,2.6-.5,3.6-1.1.3-3,1-3,2.3s1.9,2,3,2.3c-.3,1.1-.6,3,.6,3.6,1.2.7,2.8-.6,3.6-1.3.8.8,2.3,2,3.5,1.3,1.2-.7.9-2.6.6-3.7,1.1-.3,3-1,3-2.3s-1.9-2-3-2.3ZM53,12.3c-.2-.6-.4-1.1-.7-1.7.3-.6.5-1.2.7-1.7.8.2,2.5.7,2.5,1.7s-1.7,1.5-2.5,1.7ZM52.2,16c-.9.5-2.2-.7-2.8-1.3.4-.4.8-.9,1.2-1.5.7,0,1.3-.2,1.9-.3.2.8.6,2.5-.3,3ZM45.7,16c-.9-.5-.5-2.2-.3-3,.6.1,1.2.2,1.9.3.4.5.8,1,1.2,1.5-.5.5-2,1.7-2.9,1.2ZM42.5,10.5c0-1,1.7-1.5,2.5-1.7.2.6.4,1.1.7,1.7-.3.6-.5,1.2-.7,1.8-.8-.2-2.5-.8-2.5-1.8ZM45.7,5.1c.9-.5,2.3.7,2.8,1.3-.4.4-.8.9-1.2,1.5-.7,0-1.3.2-1.9.3-.2-.9-.6-2.5.3-3ZM51.1,8.4c.5,0,.9.1,1.3.2-.1.4-.3.8-.5,1.2-.3-.5-.5-.9-.8-1.4ZM49,6.8c.3.3.6.6.8,1-.6,0-1.1,0-1.7,0,.3-.4.6-.7.8-1ZM46.1,9.8c-.2-.4-.3-.8-.5-1.2.4,0,.8-.2,1.3-.2-.3.5-.6.9-.8,1.4ZM46.9,12.6c-.5,0-.9-.1-1.3-.2.1-.4.3-.8.5-1.2.3.5.5,1,.8,1.4ZM49,14.3c-.3-.3-.6-.6-.9-1,.6,0,1.1,0,1.7,0-.3.4-.6.7-.8,1ZM51.9,11.2c.2.4.3.8.5,1.2-.4,0-.9.2-1.3.2.3-.5.6-.9.8-1.4ZM50.3,12.7c-.9,0-1.7,0-2.6,0-.5-.7-.9-1.4-1.3-2.2.4-.8.8-1.5,1.3-2.2.9,0,1.7,0,2.6,0,.5.7.9,1.4,1.3,2.2-.4.8-.8,1.5-1.3,2.2ZM52.2,5.1c.9.5.5,2.3.3,3-.6-.1-1.2-.2-1.9-.3-.4-.5-.8-1-1.2-1.5.6-.6,1.9-1.8,2.8-1.3Z"/>
  </g>
</svg>