<svg width="23" height="23" viewBox="0 0 23 23" fill="none" xmlns="http://www.w3.org/2000/svg">
<rect width="23" height="23" rx="4" fill="#3A3A3A"/>
<path d="M16.5312 5.03125H6.46875C5.89688 5.03125 5.34843 5.25843 4.94405 5.6628C4.53968 6.06718 4.3125 6.61563 4.3125 7.1875V17.25C4.3125 17.8219 4.53968 18.3703 4.94405 18.7747C5.34843 19.1791 5.89688 19.4062 6.46875 19.4062H16.5312C17.1031 19.4062 17.6516 19.1791 18.0559 18.7747C18.4603 18.3703 18.6875 17.8219 18.6875 17.25V7.1875C18.6875 6.61563 18.4603 6.06718 18.0559 5.6628C17.6516 5.25843 17.1031 5.03125 16.5312 5.03125ZM15.6041 9.83969L10.2422 15.5466C10.1745 15.6175 10.0931 15.6739 10.0029 15.7122C9.91265 15.7505 9.81553 15.77 9.7175 15.7694C9.61947 15.77 9.52236 15.7505 9.43212 15.7122C9.34189 15.6739 9.26045 15.6175 9.19281 15.5466L7.41031 13.6562C7.33753 13.5895 7.27927 13.5085 7.23918 13.4183C7.19908 13.3281 7.178 13.2306 7.17725 13.1318C7.17651 13.0331 7.19611 12.9353 7.23484 12.8445C7.27357 12.7536 7.3306 12.6718 7.40237 12.604C7.47413 12.5362 7.5591 12.4839 7.65197 12.4504C7.74484 12.4168 7.84362 12.4028 7.94215 12.4091C8.04068 12.4155 8.13684 12.4421 8.22465 12.4872C8.31246 12.5324 8.39002 12.5951 8.4525 12.6716L9.7175 14.0156L14.5547 8.86938C14.6215 8.80201 14.701 8.74854 14.7886 8.71205C14.8762 8.67556 14.9701 8.65677 15.065 8.65677C15.1599 8.65677 15.2538 8.67556 15.3414 8.71205C15.429 8.74854 15.5085 8.80201 15.5753 8.86938C15.7005 8.99825 15.7729 9.16934 15.7782 9.34894C15.7836 9.52855 15.7214 9.70363 15.6041 9.83969Z" fill="#FDFDFD"/>
</svg>
