<?xml version="1.0" encoding="UTF-8"?>
<svg id="_Слой_1" data-name="Слой_1" xmlns="http://www.w3.org/2000/svg" version="1.1" viewBox="0 0 96 21">
  <!-- Generator: Adobe Illustrator 30.2.1, SVG Export Plug-In . SVG Version: 2.1.1 Build 1)  -->
  <defs>
    <style>
      .st0 {
        fill: #e3e3e3;
      }

      .st1, .st2 {
        fill: #56575a;
      }

      .st2 {
        fill-rule: evenodd;
      }

      .st3 {
        fill: #f6f6f7;
      }
    </style>
  </defs>
  <path class="st3" d="M0,5.4C0,2.7,2.2.4,5,.4h20c2.8,0,5,2.2,5,5v10.1c0,2.8-2.2,5-5,5H5c-2.8,0-5-2.2-5-5V5.4Z"/>
  <path class="st3" d="M96,15.6c0,2.8-2.2,5-5,5h-52c-2.8,0-5-2.2-5-5V5.4c0-2.8,2.2-5,5-5h52c2.8,0,5,2.2,5,5v10.1Z"/>
  <polygon class="st0" points="67.1 4.5 68.1 4.7 65 16.4 64 16.1 67.1 4.5"/>
  <path class="st1" d="M10.8,5.6h2.2v6.2c0,2.8-1.3,3.7-3.4,3.7s-1.2,0-1.6-.2l.2-1.8c.3.1.7.2,1.1.2.9,0,1.5-.4,1.5-1.9v-6.1ZM14.9,13.1c.6.3,1.5.6,2.4.6s1.5-.4,1.5-1.1-.5-1-1.6-1.4c-1.6-.6-2.6-1.5-2.6-2.9s1.4-2.9,3.6-2.9,1.9.2,2.4.5l-.5,1.8c-.4-.2-1.1-.5-2-.5s-1.4.4-1.4.9.5.9,1.8,1.4c1.7.6,2.5,1.5,2.5,2.9s-1.2,3-3.9,3-2.2-.3-2.7-.6l.4-1.8Z"/>
  <path class="st1" d="M43.7,4.8c0,0,.2,2.4.5,5.3.2,2.8.5,5.2.5,5.3v.2s2.2.6,2.2.6l2.2.6h.4c.2-.2,1.2-.5,2.2-.7,1.5-.4,1.7-.5,1.7-.6,0-.1.9-10.5.9-10.7h0c0-.1-10.5-.1-10.5-.1h0ZM52.3,7.1c0,.1-.2,1.7-.3,3.4-.2,1.7-.3,3.2-.3,3.2,0,0-2.6.8-2.7.8s-1.5-.4-2.5-.7h-.3c0,0,0-.8,0-.8,0-.4,0-.9,0-1.1v-.3s.6,0,.6,0c.8,0,.7,0,.7.5,0,.1,0,.3,0,.4v.2s.8.2.8.2l.7.2.7-.2c.4-.1.7-.2.7-.2,0,0,0-.3,0-.7,0-.4,0-.8,0-.8h0c0-.1-4.6-.1-4.6-.1h0c0-.2,0-.5,0-.8v-.6s4.8,0,4.8,0v-.4c0-.2,0-.5.1-.7,0-.2,0-.3,0-.3,0,0-1.2,0-2.5,0h-2.5s0-.4,0-.4c0-.2,0-.5,0-.7v-.3s6.7,0,6.7,0v.2Z"/>
  <path class="st2" d="M76,4.5l1,10.9,4.5,1.2,4.5-1.2,1-10.9h-11ZM84.8,8h-5.3v1.4h5.1l-.4,4.1-2.8.8-2.8-.8-.2-2.1h1.4v1.1c0,0,1.6.4,1.6.4h0s1.5-.4,1.5-.4l.2-1.7h-4.8l-.4-4h6.9v1.3Z"/>
</svg>