<svg xmlns="http://www.w3.org/2000/svg" id="_Слой_1" data-name="Слой 1" viewBox="0 0 54 54"><defs><style>.cls-1{fill:#3a3a3a}</style></defs><path d="M12.81 45.26v-7.04h2.75c.62 0 1.14.1 1.58.29s.77.48 1.01.84c.23.37.35.81.35 1.32s-.12.95-.35 1.32c-.23.36-.57.64-1.01.83s-.96.29-1.58.29h-2.19l.45-.46v2.6h-1.01Zm4.71 0-1.79-2.55h1.08l1.81 2.55zm-3.7-2.51-.45-.49h2.16c.64 0 1.13-.14 1.46-.41.34-.28.5-.67.5-1.18s-.17-.89-.5-1.17c-.33-.27-.81-.41-1.46-.41h-2.16l.45-.5zm8.53 2.57c-.57 0-1.07-.12-1.51-.35-.43-.23-.76-.56-1.01-.97-.23-.41-.35-.88-.35-1.41s.11-1 .34-1.41q.345-.615.96-.96c.41-.23.87-.35 1.38-.35s.97.11 1.37.34.7.55.93.97c.23.41.34.89.34 1.44 0 .04 0 .09-.01.14 0 .05 0 .1-.01.15h-4.54v-.69h4.03l-.39.24c0-.34-.06-.65-.21-.92s-.35-.48-.61-.62c-.25-.15-.55-.23-.9-.23s-.63.08-.9.23c-.26.15-.47.36-.61.63-.15.27-.22.58-.22.93v.16c0 .36.08.67.24.96.17.27.4.49.69.64.3.15.63.23 1.02.23.32 0 .6-.05.85-.16.26-.11.49-.27.68-.48l.53.62c-.24.28-.54.5-.91.64-.36.15-.75.22-1.2.22Zm6.95-.06v-1.13l-.05-.21V42c0-.41-.12-.72-.36-.95-.23-.23-.59-.34-1.07-.34-.32 0-.62.05-.93.16-.3.1-.56.24-.76.41l-.4-.72c.27-.22.6-.39.99-.5.39-.12.79-.18 1.22-.18.73 0 1.29.18 1.69.53.4.36.59.9.59 1.63v3.22zm-1.75.06c-.4 0-.74-.07-1.05-.2-.29-.13-.52-.32-.68-.55q-.24-.36-.24-.81c0-.45.07-.55.2-.78.14-.23.37-.42.67-.56.32-.14.74-.21 1.27-.21h1.69v.69h-1.65c-.48 0-.81.08-.98.24s-.25.36-.25.58c0 .26.1.47.31.63.21.15.5.23.86.23s.68-.08.95-.24.47-.4.59-.7l.19.66c-.13.32-.35.57-.67.75s-.73.27-1.22.27Zm6.77 0c-.54 0-1.03-.12-1.46-.35-.42-.23-.75-.56-1-.97s-.36-.88-.36-1.41.12-1 .36-1.41.57-.73 1-.96.92-.35 1.46-.35c.48 0 .91.1 1.29.29s.68.47.89.84l-.73.47c-.17-.26-.39-.45-.64-.57-.25-.13-.52-.19-.8-.19-.35 0-.66.08-.94.23-.27.15-.49.37-.65.65q-.24.405-.24.99c0 .585.08.71.24 1s.38.5.65.65.59.23.94.23c.29 0 .56-.06.8-.18.25-.13.47-.32.64-.58l.73.46c-.21.37-.5.65-.89.85-.38.19-.8.29-1.29.29Zm5.32 0c-.54 0-.95-.14-1.25-.43-.29-.29-.44-.7-.44-1.24v-4.89h.97v4.85q0 .435.21.66c.15.15.36.23.62.23.3 0 .55-.08.75-.25l.3.69c-.15.13-.33.22-.53.28q-.3.09-.63.09Zm-2.59-4.6v-.79h3.4v.79zM38.5 10.66c-.39-.13-.79-.26-1.2-.38.07-.27.13-.55.19-.81.91-4.37.32-7.9-1.72-9.06-1.95-1.11-5.15.05-8.37 2.82q-.465.405-.93.84c-.21-.2-.41-.38-.62-.57C22.46.55 19.07-.7 17.04.47c-1.95 1.12-2.53 4.43-1.71 8.57.08.4.17.81.28 1.22-.48.13-.94.28-1.39.43-3.96 1.36-6.49 3.5-6.49 5.72s2.72 4.59 6.84 5.98c.33.11.66.21 1.01.31-.11.45-.21.89-.29 1.32-.78 4.07-.17 7.31 1.77 8.42 2.01 1.14 5.38-.03 8.67-2.87.26-.22.52-.46.78-.71.34.32.68.63 1.01.91 3.18 2.7 6.32 3.8 8.27 2.68 2.01-1.15 2.66-4.62 1.81-8.85-.06-.32-.14-.65-.22-.99.24-.07.47-.14.7-.21 4.29-1.4 7.08-3.68 7.08-6s-2.61-4.38-6.65-5.76Zm-.93 10.26c-.2.07-.41.13-.63.19-.47-1.48-1.11-3.06-1.9-4.68.75-1.59 1.36-3.14 1.82-4.62.38.11.75.22 1.11.35 3.46 1.18 5.58 2.92 5.58 4.26 0 1.43-2.28 3.29-5.99 4.5Zm-1.54 3.01c.37 1.87.43 3.56.18 4.88-.22 1.19-.67 1.98-1.23 2.3-1.18.67-3.7-.2-6.42-2.52-.31-.27-.63-.55-.94-.85 1.05-1.14 2.11-2.46 3.14-3.94 1.81-.16 3.52-.42 5.07-.77.08.3.14.6.2.89Zm-15.54 7.06c-1.15.4-2.07.41-2.62.1-1.18-.67-1.67-3.27-1-6.75q.12-.6.27-1.23c1.53.33 3.23.58 5.04.72 1.04 1.44 2.12 2.76 3.21 3.92-.24.23-.48.44-.71.65-1.45 1.25-2.91 2.14-4.19 2.59m-5.4-10.08c-1.82-.62-3.33-1.42-4.36-2.29-.93-.79-1.4-1.57-1.4-2.2 0-1.35 2.03-3.06 5.42-4.23.41-.14.84-.28 1.29-.4.47 1.51 1.08 3.08 1.82 4.67-.75 1.61-1.37 3.21-1.85 4.74-.32-.09-.63-.19-.92-.29M16.9 8.74c-.7-3.55-.24-6.23.94-6.9 1.25-.72 4.02.3 6.94 2.86.19.16.37.33.56.51-1.09 1.15-2.16 2.47-3.19 3.9-1.76.16-3.44.42-4.99.77-.1-.39-.18-.77-.26-1.14m16.14 3.94c-.37-.63-.75-1.25-1.14-1.85 1.19.15 2.34.35 3.41.59-.32 1.02-.72 2.09-1.2 3.18q-.51-.96-1.08-1.92Zm-6.58-6.34c.74.79 1.48 1.67 2.2 2.63-.73-.03-1.47-.05-2.22-.05s-1.48.02-2.2.05c.73-.95 1.47-1.83 2.22-2.63m-6.62 6.35c-.37.63-.72 1.27-1.06 1.91-.47-1.09-.86-2.16-1.19-3.2 1.07-.24 2.21-.43 3.39-.58-.39.61-.78 1.23-1.15 1.86Zm1.18 9.44c-1.23-.14-2.38-.32-3.45-.55.33-1.05.74-2.15 1.21-3.26.33.64.69 1.28 1.06 1.91.38.65.77 1.28 1.18 1.9m5.49 4.48c-.76-.81-1.51-1.7-2.25-2.66.72.03 1.45.04 2.19.04s1.52-.02 2.26-.05c-.73.98-1.46 1.87-2.2 2.67m7.63-8.35c.5 1.13.92 2.22 1.26 3.25-1.09.24-2.26.44-3.49.59.39-.61.77-1.24 1.15-1.88.38-.65.74-1.31 1.09-1.96Zm-2.47 1.17c-.59 1-1.19 1.96-1.8 2.86-1.11.08-2.26.12-3.43.12s-2.3-.04-3.39-.11c-.63-.91-1.25-1.87-1.83-2.87-.58-.99-1.11-1.99-1.6-2.98.48-.99 1.02-1.99 1.59-2.98.58-.99 1.19-1.94 1.81-2.85 1.11-.08 2.25-.13 3.41-.13s2.3.04 3.41.13c.62.9 1.22 1.85 1.8 2.84.59 1 1.13 1.99 1.61 2.97-.49.99-1.02 1.99-1.61 2.99Zm3.29-17.64c1.25.71 1.74 3.59.95 7.37-.05.24-.11.49-.17.74-1.55-.35-3.24-.62-5-.78-1.03-1.45-2.09-2.76-3.16-3.9.29-.27.57-.53.86-.78 2.76-2.38 5.35-3.31 6.52-2.64Zm-8.52 11.33c1.85 0 3.34 1.48 3.34 3.3s-1.5 3.3-3.34 3.3-3.34-1.48-3.34-3.3 1.5-3.3 3.34-3.3" class="cls-1"/></svg>