<svg xmlns="http://www.w3.org/2000/svg" id="_Слой_1" data-name="Слой 1" viewBox="0 0 54 54"><defs><style>.cls-1{fill:#3a3a3a}</style></defs><path d="M2.54 45.2v-6.16H.12v-.87h5.82v.87H3.53v6.16h-1Zm4.26 2.01c-.25 0-.5-.04-.74-.13-.24-.08-.45-.2-.62-.36l.41-.72c.13.13.28.22.44.29s.33.1.51.1c.23 0 .43-.06.58-.18s.3-.34.43-.64l.33-.73.1-.12 2.09-4.84h.95L8.7 45.74c-.15.38-.33.67-.52.89-.19.21-.4.37-.62.45-.23.09-.48.14-.75.14Zm1.27-1.84-2.43-5.5h1.01l2.07 4.75-.64.75Zm6.94-.11c-.44 0-.85-.1-1.22-.3-.36-.21-.65-.51-.87-.92-.21-.4-.32-.91-.32-1.51s.1-1.11.31-1.51.5-.7.86-.91c.37-.2.78-.3 1.24-.3.52 0 .99.11 1.39.34s.72.55.96.96c.23.4.35.87.35 1.42s-.12 1.02-.35 1.43q-.345.615-.96.96c-.615.345-.86.34-1.39.34m-2.82 1.89v-7.28h.93v1.44l-.06 1.24.1 1.24v3.37h-.97Zm2.74-2.74c.34 0 .65-.08.92-.23s.49-.37.64-.65c.16-.29.24-.62.24-1s-.08-.71-.24-.99c-.15-.28-.37-.5-.64-.65s-.57-.23-.92-.23-.64.08-.92.23c-.27.15-.48.37-.64.65-.15.27-.23.6-.23.99s.08.71.23 1c.16.28.38.5.64.65.27.15.58.23.92.23m6.48.85c-.57 0-1.07-.12-1.51-.35-.43-.23-.76-.56-1.01-.97-.23-.41-.35-.88-.35-1.41s.11-1 .34-1.41q.345-.615.96-.96c.41-.23.87-.35 1.38-.35s.97.11 1.37.34.7.55.93.97c.23.41.34.89.34 1.44 0 .04 0 .09-.01.14 0 .05 0 .1-.01.15H19.3v-.69h4.03l-.39.24c0-.34-.06-.65-.21-.92s-.35-.48-.61-.62c-.25-.15-.55-.23-.9-.23s-.63.08-.9.23c-.26.15-.47.36-.61.63-.15.27-.22.58-.22.93v.16c0 .36.08.67.24.96.17.27.4.49.69.64s.63.23 1.02.23c.32 0 .6-.05.85-.16.26-.11.49-.27.68-.48l.53.62c-.24.28-.54.5-.91.64-.36.15-.75.22-1.2.22Zm5.98.02c-.54 0-1.05-.08-1.54-.24-.49-.17-.87-.38-1.16-.64l.37-.78c.27.23.61.43 1.03.58s.85.23 1.3.23c.41 0 .74-.05 1-.14s.44-.22.56-.38c.12-.17.18-.36.18-.56 0-.24-.08-.44-.24-.58-.15-.15-.36-.26-.61-.35s-.52-.17-.82-.24-.61-.14-.92-.23c-.3-.09-.58-.21-.83-.35s-.45-.33-.6-.56c-.15-.24-.23-.55-.23-.93s.09-.69.28-1 .49-.55.88-.73c.4-.19.91-.28 1.53-.28.41 0 .81.05 1.22.16.4.11.75.26 1.05.46l-.33.8c-.3-.2-.62-.35-.96-.43-.34-.09-.66-.14-.98-.14-.4 0-.72.05-.98.15-.25.1-.44.23-.56.4-.11.17-.17.36-.17.56 0 .25.08.45.23.59.16.15.37.26.61.35.25.09.53.17.83.24s.6.14.91.23.59.2.83.34c.25.14.46.33.61.56s.23.54.23.91-.1.69-.29 1c-.19.3-.5.55-.91.73q-.6.27-1.53.27Zm6.38-.02c-.54 0-1.03-.12-1.46-.35-.42-.23-.75-.56-1-.97s-.36-.88-.36-1.41.12-1 .36-1.41.57-.73 1-.96.92-.35 1.46-.35c.48 0 .91.1 1.29.29s.68.47.89.84l-.73.47c-.17-.26-.39-.45-.64-.57-.25-.13-.52-.19-.8-.19-.35 0-.66.08-.94.23-.27.15-.49.37-.65.65q-.24.405-.24.99c0 .585.08.71.24 1s.38.5.65.65.59.23.94.23c.29 0 .56-.06.8-.18.25-.13.47-.32.64-.58l.73.46c-.21.37-.5.65-.89.85-.38.19-.8.29-1.29.29Zm3.42-.06v-5.33h.93v1.45l-.09-.36c.15-.37.4-.65.74-.84.35-.19.78-.29 1.29-.29v.94s-.08-.01-.12-.01h-.1c-.52 0-.93.15-1.23.46s-.45.75-.45 1.34v2.66h-.97Zm4.06 0v-5.33h.97v5.33zm.48-6.36c-.19 0-.35-.06-.47-.18s-.18-.27-.18-.44.06-.33.18-.45c.13-.12.29-.18.47-.18s.34.06.46.18c.13.11.19.26.19.43s-.06.34-.18.46-.28.18-.47.18m5.15 6.42c-.44 0-.85-.1-1.22-.3-.36-.21-.65-.51-.87-.92-.21-.4-.32-.91-.32-1.51s.1-1.11.31-1.51.5-.7.86-.91c.37-.2.78-.3 1.24-.3.52 0 .99.11 1.39.34q.6.345.96.96c.23.4.35.87.35 1.42s-.12 1.02-.35 1.43-.55.73-.96.96c-.4.23-.86.34-1.39.34m-2.82 1.89v-7.28h.93v1.44l-.06 1.24.1 1.24v3.37h-.97Zm2.74-2.74c.34 0 .65-.08.92-.23s.49-.37.64-.65c.16-.29.24-.62.24-1s-.08-.71-.24-.99c-.15-.28-.37-.5-.64-.65s-.57-.23-.92-.23-.64.08-.92.23c-.27.15-.48.37-.64.65-.15.27-.23.6-.23.99s.08.71.23 1c.16.28.38.5.64.65.27.15.58.23.92.23m5.94.85c-.54 0-.95-.14-1.25-.43-.29-.29-.44-.7-.44-1.24V38.7h.97v4.85q0 .435.21.66c.15.15.36.23.62.23.3 0 .55-.08.75-.25l.3.69c-.15.13-.33.22-.53.28q-.3.09-.63.09Zm-2.59-4.6v-.79h3.4v.79zM38.98 7.18c1.22.28 2.32.91 3.18 1.8.47.49.88 1.03 1.22 1.61.02.06-2.19 1.52-3.54 2.34-.05.03-.24-.17-.46-.49-.24-.42-.59-.76-1.01-1.01s-.89-.39-1.38-.4c-1.54-.1-2.53.69-2.53 2.02-.01.33.06.65.22.94.34.69.97 1.1 2.94 1.95 3.64 1.54 5.2 2.56 6.17 4 .54.91.88 1.93.98 2.98s-.03 2.12-.39 3.11c-.49 1.09-1.27 2.04-2.26 2.74s-2.15 1.12-3.36 1.23c-1.29.15-2.59.13-3.87-.04-1.97-.32-3.78-1.25-5.17-2.65-.53-.58-.97-1.23-1.32-1.93.15-.11.31-.21.47-.29.23-.13 1.08-.61 1.89-1.07l1.46-.83.31.44c.52.73 1.17 1.35 1.93 1.82.77.41 1.64.61 2.51.57s1.72-.32 2.44-.81c.37-.36.6-.83.66-1.34.05-.51-.08-1.02-.37-1.44-.4-.56-1.2-1.02-3.5-2-1.8-.6-3.44-1.58-4.79-2.89-.65-.72-1.12-1.58-1.4-2.5-.2-1.05-.23-2.13-.09-3.19.27-1.22.91-2.33 1.85-3.18.93-.85 2.11-1.4 3.37-1.57 1.28-.15 2.58-.12 3.85.11ZM27.05 9.27l.02 2.05h-6.62v18.5h-4.68v-18.5H9.15V9.31c-.02-.69 0-1.38.06-2.06.02-.03 4.05-.05 8.93-.04l8.88.02z" class="cls-1"/></svg>