<svg width="139" height="52" viewBox="0 0 139 52" fill="none" xmlns="http://www.w3.org/2000/svg">
<path d="M75.0996 46.288C73.8036 46.288 72.5956 46.08 71.4756 45.664C70.3716 45.232 69.4116 44.624 68.5956 43.84C67.7796 43.056 67.1396 42.136 66.6756 41.08C66.2276 40.024 66.0036 38.864 66.0036 37.6C66.0036 36.336 66.2276 35.176 66.6756 34.12C67.1396 33.064 67.7796 32.144 68.5956 31.36C69.4276 30.576 70.3956 29.976 71.4996 29.56C72.6036 29.128 73.8116 28.912 75.1236 28.912C76.5796 28.912 77.8916 29.168 79.0596 29.68C80.2436 30.176 81.2356 30.912 82.0356 31.888L79.5396 34.192C78.9636 33.536 78.3236 33.048 77.6196 32.728C76.9156 32.392 76.1476 32.224 75.3156 32.224C74.5316 32.224 73.8116 32.352 73.1556 32.608C72.4996 32.864 71.9316 33.232 71.4516 33.712C70.9716 34.192 70.5956 34.76 70.3236 35.416C70.0676 36.072 69.9396 36.8 69.9396 37.6C69.9396 38.4 70.0676 39.128 70.3236 39.784C70.5956 40.44 70.9716 41.008 71.4516 41.488C71.9316 41.968 72.4996 42.336 73.1556 42.592C73.8116 42.848 74.5316 42.976 75.3156 42.976C76.1476 42.976 76.9156 42.816 77.6196 42.496C78.3236 42.16 78.9636 41.656 79.5396 40.984L82.0356 43.288C81.2356 44.264 80.2436 45.008 79.0596 45.52C77.8916 46.032 76.5716 46.288 75.0996 46.288ZM82.1484 46L89.6364 29.2H93.4764L100.988 46H96.9084L90.7644 31.168H92.3004L86.1324 46H82.1484ZM85.8924 42.4L86.9244 39.448H95.5644L96.6204 42.4H85.8924ZM102.731 46V29.2H110.003C111.507 29.2 112.803 29.448 113.891 29.944C114.979 30.424 115.819 31.12 116.411 32.032C117.003 32.944 117.299 34.032 117.299 35.296C117.299 36.544 117.003 37.624 116.411 38.536C115.819 39.432 114.979 40.12 113.891 40.6C112.803 41.08 111.507 41.32 110.003 41.32H104.891L106.619 39.616V46H102.731ZM113.411 46L109.211 39.904H113.363L117.611 46H113.411ZM106.619 40.048L104.891 38.224H109.787C110.987 38.224 111.883 37.968 112.475 37.456C113.067 36.928 113.363 36.208 113.363 35.296C113.363 34.368 113.067 33.648 112.475 33.136C111.883 32.624 110.987 32.368 109.787 32.368H104.891L106.619 30.52V40.048ZM120.38 46V29.2H128.012C129.836 29.2 131.444 29.552 132.836 30.256C134.228 30.944 135.316 31.912 136.1 33.16C136.884 34.408 137.276 35.888 137.276 37.6C137.276 39.296 136.884 40.776 136.1 42.04C135.316 43.288 134.228 44.264 132.836 44.968C131.444 45.656 129.836 46 128.012 46H120.38ZM124.268 42.808H127.82C128.94 42.808 129.908 42.6 130.724 42.184C131.556 41.752 132.196 41.144 132.644 40.36C133.108 39.576 133.34 38.656 133.34 37.6C133.34 36.528 133.108 35.608 132.644 34.84C132.196 34.056 131.556 33.456 130.724 33.04C129.908 32.608 128.94 32.392 127.82 32.392H124.268V42.808Z" fill="black"/>
<path d="M7.248 23L3.40492e-06 6.2H4.2L10.536 21.08H8.064L14.496 6.2H18.36L11.088 23H7.248ZM19.7627 23V6.2H23.6507V23H19.7627ZM33.1577 23.288C31.8137 23.288 30.5257 23.112 29.2937 22.76C28.0617 22.392 27.0697 21.92 26.3177 21.344L27.6377 18.416C28.3577 18.928 29.2057 19.352 30.1817 19.688C31.1737 20.008 32.1737 20.168 33.1817 20.168C33.9497 20.168 34.5657 20.096 35.0297 19.952C35.5097 19.792 35.8617 19.576 36.0857 19.304C36.3097 19.032 36.4217 18.72 36.4217 18.368C36.4217 17.92 36.2457 17.568 35.8937 17.312C35.5417 17.04 35.0777 16.824 34.5017 16.664C33.9257 16.488 33.2857 16.328 32.5817 16.184C31.8937 16.024 31.1977 15.832 30.4937 15.608C29.8057 15.384 29.1737 15.096 28.5977 14.744C28.0217 14.392 27.5497 13.928 27.1817 13.352C26.8297 12.776 26.6537 12.04 26.6537 11.144C26.6537 10.184 26.9097 9.312 27.4217 8.528C27.9497 7.728 28.7337 7.096 29.7737 6.632C30.8297 6.152 32.1497 5.912 33.7337 5.912C34.7897 5.912 35.8297 6.04 36.8537 6.296C37.8777 6.536 38.7817 6.904 39.5657 7.4L38.3657 10.352C37.5817 9.904 36.7977 9.576 36.0137 9.368C35.2297 9.144 34.4617 9.032 33.7097 9.032C32.9577 9.032 32.3417 9.12 31.8617 9.296C31.3817 9.472 31.0377 9.704 30.8297 9.992C30.6217 10.264 30.5177 10.584 30.5177 10.952C30.5177 11.384 30.6937 11.736 31.0457 12.008C31.3977 12.264 31.8617 12.472 32.4377 12.632C33.0137 12.792 33.6457 12.952 34.3337 13.112C35.0377 13.272 35.7337 13.456 36.4217 13.664C37.1257 13.872 37.7657 14.152 38.3417 14.504C38.9177 14.856 39.3817 15.32 39.7337 15.896C40.1017 16.472 40.2857 17.2 40.2857 18.08C40.2857 19.024 40.0217 19.888 39.4937 20.672C38.9657 21.456 38.1737 22.088 37.1177 22.568C36.0777 23.048 34.7577 23.288 33.1577 23.288ZM42.9424 23V6.2H46.8304V23H42.9424ZM54.2974 23V9.368H48.9214V6.2H63.5614V9.368H58.1854V23H54.2974Z" fill="black"/>
</svg>
