<svg xmlns="http://www.w3.org/2000/svg" id="_Слой_1" data-name="Слой 1" viewBox="0 0 54 54"><defs><style>.cls-1{fill:#3a3a3a}</style></defs><path d="M23.31 45.32c-.54 0-1.04-.09-1.5-.26-.46-.18-.85-.43-1.19-.75-.34-.33-.6-.71-.78-1.15-.19-.44-.28-.92-.28-1.44s.09-1 .28-1.44.45-.81.78-1.14q.51-.495 1.2-.75c.46-.18.96-.27 1.51-.27s1.07.09 1.53.27.85.45 1.18.81l-.62.62c-.29-.28-.6-.49-.95-.61-.34-.13-.7-.2-1.1-.2s-.78.07-1.13.2c-.34.13-.64.32-.9.56-.25.24-.44.53-.58.86-.13.33-.2.69-.2 1.08s.07.74.2 1.08c.14.33.34.62.58.86.25.24.55.43.9.56.34.13.71.2 1.12.2.38 0 .73-.06 1.08-.17.35-.12.67-.32.97-.59l.57.76c-.35.29-.76.52-1.23.67-.46.15-.94.22-1.44.22Zm1.7-1.02v-2.61h.97v2.75l-.97-.13Zm2.75.94v-5.33h.97v5.33zm.48-6.35c-.19 0-.35-.06-.47-.18s-.18-.27-.18-.44.06-.33.18-.45c.13-.12.28-.18.47-.18s.34.06.46.18c.13.11.19.26.19.43s-.06.34-.18.46-.28.18-.47.18m4.16 6.41c-.54 0-.95-.14-1.25-.43s-.44-.7-.44-1.24v-4.89h.97v4.85q0 .435.21.66c.15.15.36.23.62.23.3 0 .55-.08.75-.25l.3.69c-.15.13-.33.22-.53.28q-.3.09-.63.09Zm-2.6-4.59v-.79h3.4v.79zM41.54 14.22 29.1 1.79c-.53-.53-1.22-.8-1.92-.8s-1.39.27-1.92.8L22.8 4.25l3.04 3.04c1.01-.59 2.33-.47 3.2.4s.99 2.18.4 3.19l2.99 2.99c1.01-.59 2.33-.47 3.2.4 1.03 1.03 1.03 2.7 0 3.73s-2.7 1.03-3.73 0c-.87-.87-1-2.18-.4-3.2l-2.99-2.99c-.21.13-.44.22-.67.28v8.09c1.13.29 1.98 1.31 1.98 2.54 0 1.46-1.18 2.63-2.63 2.63s-2.63-1.18-2.63-2.63c0-1.23.84-2.25 1.98-2.54v-8.09c-.44-.11-.86-.33-1.2-.68-.87-.87-.99-2.18-.4-3.19l-3.05-3.05-9.05 9.05c-1.06 1.06-1.06 2.78 0 3.83l12.44 12.44c.53.53 1.22.8 1.92.8s1.39-.26 1.92-.8l12.44-12.44c1.06-1.06 1.06-2.78 0-3.83Z" class="cls-1"/></svg>