<svg xmlns="http://www.w3.org/2000/svg" data-name="Слой 1" viewBox="0 0 54 54"><path d="M3.01 45.38c-.42 0-.8-.09-1.17-.26-.36-.17-.66-.43-.89-.75l.58-.68c.19.27.41.48.65.62q.375.21.81.21c.8 0 1.21-.48 1.21-1.43v-3.95H1.68v-.87h3.54v4.78c0 .78-.19 1.37-.56 1.76s-.92.58-1.64.58Zm7.42-.08v-1.13l-.05-.21v-1.92c0-.41-.12-.72-.36-.95-.23-.23-.59-.34-1.07-.34-.32 0-.62.05-.93.16-.3.1-.56.24-.76.41l-.4-.72c.27-.22.6-.39.99-.5.39-.12.79-.18 1.22-.18.73 0 1.29.18 1.69.53.4.36.59.9.59 1.63v3.22zm-1.75.06c-.4 0-.74-.07-1.05-.2-.29-.13-.52-.32-.68-.55q-.24-.36-.24-.81c0-.45.07-.55.2-.78.14-.23.37-.42.67-.56.32-.14.74-.21 1.27-.21h1.69v.69H8.89c-.48 0-.81.08-.98.24s-.25.36-.25.58c0 .26.1.47.31.63.21.15.5.23.86.23s.68-.08.95-.24.47-.4.59-.7l.19.66c-.13.32-.35.57-.67.75s-.73.27-1.22.27Zm5.76-.06-2.33-5.33h1.01l2.07 4.83h-.48l2.11-4.83h.95l-2.33 5.33h-.99Zm7.36 0v-1.13l-.05-.21v-1.92c0-.41-.12-.72-.36-.95-.23-.23-.59-.34-1.07-.34-.32 0-.62.05-.93.16-.3.1-.56.24-.76.41l-.4-.72c.27-.22.6-.39.99-.5.39-.12.79-.18 1.22-.18.73 0 1.29.18 1.69.53.4.36.59.9.59 1.63v3.22zm-1.75.06c-.4 0-.74-.07-1.05-.2-.29-.13-.52-.32-.68-.55q-.24-.36-.24-.81c0-.45.07-.55.2-.78.14-.23.37-.42.67-.56.32-.14.74-.21 1.27-.21h1.69v.69h-1.65c-.48 0-.81.08-.98.24s-.25.36-.25.58c0 .26.1.47.31.63.21.15.5.23.86.23s.68-.08.95-.24.47-.4.59-.7l.19.66c-.13.32-.35.57-.67.75s-.73.27-1.22.27Zm6.64.02c-.54 0-1.05-.08-1.54-.24-.49-.17-.87-.38-1.16-.64l.37-.78c.27.23.61.43 1.03.58s.85.23 1.3.23c.41 0 .74-.05 1-.14.25-.09.44-.22.56-.38.12-.17.18-.36.18-.56 0-.24-.08-.44-.24-.58-.15-.15-.36-.26-.61-.35s-.52-.17-.82-.24-.61-.14-.92-.23c-.3-.09-.58-.21-.83-.35s-.45-.33-.6-.56c-.15-.24-.23-.55-.23-.93s.09-.69.28-1 .49-.55.89-.73c.4-.19.91-.28 1.53-.28.41 0 .81.05 1.22.16.4.11.75.26 1.05.46l-.33.8c-.3-.2-.62-.35-.96-.43-.34-.09-.66-.14-.98-.14-.4 0-.72.05-.98.15-.25.1-.44.23-.56.4-.11.17-.17.36-.17.56 0 .25.08.45.23.59.16.15.37.26.61.35.25.09.53.17.83.24s.6.14.91.23.59.2.83.34c.25.14.46.33.61.56s.23.54.23.91-.1.69-.29 1c-.19.3-.5.55-.91.73q-.6.27-1.53.27m6.38-.02c-.54 0-1.03-.12-1.46-.35-.42-.23-.75-.56-1-.97q-.36-.615-.36-1.41c0-.795.12-1 .36-1.41s.57-.73 1-.96.92-.35 1.46-.35c.48 0 .91.1 1.29.29s.68.47.89.84l-.73.47c-.17-.26-.39-.45-.64-.57-.25-.13-.52-.19-.8-.19-.35 0-.66.08-.94.23-.27.15-.49.37-.65.65q-.24.405-.24.99c0 .585.08.71.24 1 .16.28.38.5.65.65s.59.23.94.23c.29 0 .56-.06.8-.18.25-.13.47-.32.64-.58l.73.46c-.21.37-.5.65-.89.85-.38.19-.8.29-1.29.29Zm3.42-.06v-5.33h.93v1.45l-.09-.36c.15-.37.4-.65.74-.84.35-.19.78-.29 1.29-.29v.94s-.08-.01-.12-.01h-.1c-.52 0-.93.15-1.23.46s-.45.75-.45 1.34v2.66h-.97Zm4.06 0v-5.33h.97v5.33zm.48-6.36c-.19 0-.35-.06-.47-.18s-.18-.27-.18-.44.06-.33.18-.45c.13-.12.28-.18.47-.18s.34.06.46.18c.13.11.19.26.19.43s-.06.34-.18.46-.28.18-.47.18m5.15 6.42c-.44 0-.85-.1-1.22-.3-.36-.21-.65-.51-.87-.92-.21-.4-.32-.91-.32-1.51s.1-1.11.31-1.51.5-.7.86-.91c.37-.2.78-.3 1.24-.3.52 0 .99.11 1.39.34q.6.345.96.96c.23.4.35.87.35 1.42s-.12 1.02-.35 1.43q-.345.615-.96.96c-.4.23-.86.34-1.39.34m-2.83 1.89v-7.28h.93v1.44l-.06 1.24.1 1.24v3.37h-.97Zm2.75-2.74c.34 0 .65-.08.92-.23s.49-.37.64-.65c.16-.29.24-.62.24-1s-.08-.71-.24-.99c-.15-.28-.37-.5-.64-.65s-.57-.23-.92-.23-.64.08-.92.23c-.27.15-.48.37-.64.65-.15.27-.23.6-.23.99s.08.71.23 1c.16.28.38.5.64.65.27.15.58.23.92.23m5.94.85c-.54 0-.95-.14-1.25-.43s-.44-.7-.44-1.24V38.8h.97v4.85q0 .435.21.66c.15.15.36.23.62.23.3 0 .55-.08.75-.25l.3.69c-.15.13-.33.22-.53.28q-.3.09-.63.09Zm-2.59-4.6v-.79h3.4v.79z" style="fill:#222"/><path d="M17.57 7.93h5.35v14.76c0 6.65-3.24 8.97-8.42 8.97-1.27 0-2.89-.21-3.94-.55l.6-4.26c.74.24 1.69.42 2.75.42 2.25 0 3.66-1 3.66-4.61zm10 17.94c1.41.73 3.66 1.46 5.95 1.46 2.47 0 3.77-1 3.77-2.56 0-1.42-1.13-2.29-3.98-3.26-3.94-1.39-6.55-3.53-6.55-6.96 0-3.98 3.42-7 8.98-7 2.71 0 4.65.52 6.06 1.18l-1.2 4.23c-.92-.45-2.64-1.11-4.93-1.11s-3.45 1.07-3.45 2.25c0 1.49 1.3 2.15 4.4 3.32 4.19 1.52 6.13 3.67 6.13 7 0 3.91-3.03 7.24-9.54 7.24-2.71 0-5.39-.73-6.73-1.46z" style="fill:#3a3a3a"/></svg>