<svg xmlns="http://www.w3.org/2000/svg" id="_Слой_1" data-name="Слой 1" viewBox="0 0 54 54"><defs><style>.cls-1{fill:#3a3a3a}</style></defs><path d="M11.48 45.26v-7.04h2.75c.62 0 1.14.1 1.58.29s.77.48 1.01.84c.23.37.35.81.35 1.32s-.12.95-.35 1.32c-.23.36-.57.64-1.01.83s-.96.29-1.58.29h-2.19l.45-.46v2.6h-1.01Zm4.71 0-1.79-2.55h1.08l1.81 2.55zm-3.7-2.5-.45-.49h2.16c.64 0 1.13-.14 1.46-.41.34-.28.5-.67.5-1.18s-.17-.89-.5-1.17c-.33-.27-.81-.41-1.46-.41h-2.16l.45-.5zm8.53 2.56c-.57 0-1.07-.12-1.51-.35-.43-.23-.76-.56-1.01-.97-.23-.41-.35-.88-.35-1.41s.11-1 .34-1.41q.345-.615.96-.96c.41-.23.87-.35 1.38-.35s.97.11 1.37.34.7.55.93.97c.23.41.34.89.34 1.44 0 .04 0 .09-.01.14 0 .05 0 .1-.01.15h-4.54v-.69h4.03l-.39.24c0-.34-.06-.65-.21-.92s-.35-.48-.61-.62c-.25-.15-.55-.23-.9-.23s-.63.08-.9.23c-.26.15-.47.36-.61.63-.15.27-.22.58-.22.93v.16c0 .36.08.67.24.96.17.27.4.49.69.64s.63.23 1.02.23c.32 0 .6-.05.85-.16.26-.11.49-.27.68-.48l.53.62c-.24.28-.54.5-.91.64-.36.15-.75.22-1.2.22Zm5.99 0c-.52 0-.98-.11-1.39-.34q-.6-.345-.96-.96c-.23-.41-.35-.89-.35-1.43s.12-1.02.35-1.42q.345-.615.96-.96c.41-.23.87-.34 1.39-.34.45 0 .85.1 1.22.3s.65.5.86.91c.22.4.33.91.33 1.51s-.11 1.11-.32 1.51-.49.71-.85.92c-.36.2-.77.3-1.24.3m.08-.84c.34 0 .64-.08.91-.23s.49-.37.64-.65c.16-.29.24-.62.24-1s-.08-.71-.24-.99c-.15-.28-.37-.5-.64-.65s-.57-.23-.91-.23-.65.08-.92.23-.48.37-.64.65q-.24.405-.24.99c0 .585.08.71.24 1 .16.28.38.5.64.65.27.15.57.23.92.23m1.82.78v-1.44l.06-1.24-.1-1.24v-3.55h.97v7.46h-.93Zm5 .06c-.46 0-.86-.08-1.21-.25-.34-.17-.61-.42-.8-.76-.19-.35-.28-.78-.28-1.31v-3.07h.97v2.96c0 .52.12.92.37 1.18s.61.39 1.07.39c.34 0 .63-.07.87-.2q.375-.21.57-.6c.13-.27.2-.59.2-.97v-2.76h.97v5.33h-.92v-1.44l.15.38c-.17.36-.44.63-.78.82-.35.19-.74.29-1.18.29Zm3.79-.06 2.29-2.98v.49l-2.19-2.85h1.08l1.67 2.19h-.41l1.67-2.19h1.06l-2.21 2.87v-.51l2.32 2.98h-1.1l-1.76-2.33.39.06-1.73 2.27zM32.83 22.14c1.14-.12 2-1.08 1.96-2.24s-1.02-2.09-2.2-2.09h-.08c-1.22.04-2.16 1.04-2.12 2.24.04.58.27 1.08.63 1.43-1.34 2.59-3.38 4.48-6.44 6.06-2.08 1.08-4.24 1.47-6.4 1.2-1.77-.23-3.14-1-4.01-2.28-1.26-1.89-1.38-3.94-.31-5.99.75-1.47 1.93-2.55 2.67-3.09-.16-.5-.39-1.35-.51-1.97-5.7 4.06-5.11 9.54-3.38 12.13 1.3 1.93 3.93 3.13 6.84 3.13.79 0 1.57-.08 2.36-.27 5.03-.97 8.84-3.9 11-8.27Zm6.91-4.79c-2.99-3.44-7.39-5.33-12.42-5.33h-.63c-.35-.7-1.1-1.16-1.93-1.16h-.08c-1.22.04-2.16 1.04-2.12 2.24.04 1.16 1.02 2.09 2.2 2.09h.08c.86-.04 1.61-.58 1.93-1.31h.71c2.99 0 5.81.85 8.37 2.51 1.96 1.27 3.38 2.94 4.16 4.94.67 1.62.63 3.21-.08 4.56-1.1 2.05-2.95 3.17-5.38 3.17-1.57 0-3.06-.46-3.85-.81-.43.39-1.22 1-1.77 1.39 1.69.77 3.42 1.2 5.07 1.2 3.77 0 6.56-2.05 7.62-4.09 1.14-2.24 1.06-6.1-1.89-9.39ZM19.78 22.8c.04 1.16 1.02 2.09 2.2 2.09h.08c1.22-.04 2.16-1.04 2.12-2.24-.04-1.16-1.02-2.09-2.2-2.09h-.08c-.08 0-.2 0-.27.04-1.61-2.63-2.28-5.48-2.04-8.58.16-2.32.94-4.33 2.32-5.99 1.14-1.43 3.34-2.12 4.83-2.16 4.16-.08 5.93 5.02 6.05 7.07.51.12 1.38.39 1.96.58-.47-6.26-4.4-9.5-8.17-9.5-3.54 0-6.8 2.51-8.09 6.22-1.81 4.94-.63 9.7 1.57 13.44-.2.27-.31.7-.27 1.12Z" class="cls-1"/></svg>