<?xml version="1.0" encoding="UTF-8"?>
<svg id="_Слой_1" data-name="Слой 1" xmlns="http://www.w3.org/2000/svg" viewBox="0 0 96 21">
  <defs>
    <style>
      .cls-1 {
        fill: #e3e3e3;
      }

      .cls-2, .cls-3 {
        fill: #56575a;
      }

      .cls-3 {
        fill-rule: evenodd;
      }

      .cls-4 {
        fill: #f6f6f7;
      }
    </style>
  </defs>
  <path class="cls-4" d="M0,5.44C0,2.68,2.24.44,5,.44h20c2.76,0,5,2.24,5,5v10.12c0,2.76-2.24,5-5,5H5c-2.76,0-5-2.24-5-5V5.44Z"/>
  <path class="cls-2" d="M10.83,5.63h2.16v6.16c0,2.77-1.31,3.74-3.4,3.74-.51,0-1.17-.09-1.59-.23l.24-1.78c.3.1.68.17,1.11.17.91,0,1.48-.42,1.48-1.92v-6.14ZM14.87,13.12c.57.3,1.48.61,2.4.61,1,0,1.52-.42,1.52-1.07,0-.59-.46-.95-1.61-1.36-1.59-.58-2.65-1.47-2.65-2.91,0-1.66,1.38-2.92,3.63-2.92,1.09,0,1.88.22,2.45.49l-.48,1.76c-.37-.19-1.07-.46-1.99-.46s-1.39.45-1.39.94c0,.62.53.9,1.78,1.39,1.69.64,2.47,1.53,2.47,2.92,0,1.63-1.22,3.02-3.85,3.02-1.09,0-2.18-.3-2.72-.61l.44-1.81Z"/>
  <path class="cls-4" d="M96,15.56c0,2.76-2.24,5-5,5h-52c-2.76,0-5-2.24-5-5V5.44c0-2.76,2.24-5,5-5h52c2.76,0,5,2.24,5,5v10.12Z"/>
  <polygon class="cls-1" points="67.11 4.46 68.07 4.72 64.97 16.38 64 16.12 67.11 4.46"/>
  <path class="cls-2" d="M84.31,12.89c.44-.05.78-.45.76-.94-.02-.49-.4-.87-.86-.87h-.03c-.47.02-.84.44-.82.94.02.24.11.45.24.6-.52,1.08-1.31,1.88-2.5,2.54-.81.45-1.65.61-2.49.5-.69-.1-1.22-.42-1.56-.95-.49-.79-.53-1.65-.12-2.51.29-.61.75-1.07,1.04-1.29-.06-.21-.15-.57-.2-.83-2.21,1.7-1.99,4-1.31,5.08.5.81,1.53,1.31,2.66,1.31.31,0,.61-.03.92-.11,1.95-.4,3.44-1.63,4.28-3.46ZM87,10.89c-1.16-1.44-2.87-2.23-4.83-2.23h-.24c-.14-.29-.43-.49-.75-.49h-.03c-.47.02-.84.44-.82.94.02.49.4.87.86.87h.03c.34-.02.63-.24.75-.55h.27c1.16,0,2.26.36,3.25,1.05.76.53,1.31,1.23,1.62,2.07.26.68.24,1.34-.03,1.91-.43.86-1.15,1.33-2.09,1.33-.61,0-1.19-.19-1.5-.34-.17.16-.47.42-.69.58.66.32,1.33.5,1.97.5,1.47,0,2.55-.86,2.96-1.72.44-.94.41-2.56-.73-3.93ZM79.24,13.17c.02.49.4.87.86.87h.03c.47-.02.84-.44.82-.94-.02-.49-.4-.87-.86-.87h-.03s-.08,0-.11.02c-.63-1.1-.89-2.3-.79-3.59.06-.97.37-1.81.9-2.51.44-.6,1.3-.89,1.88-.91,1.62-.03,2.31,2.1,2.35,2.96.2.05.53.16.76.24-.18-2.62-1.71-3.98-3.18-3.98-1.37,0-2.64,1.05-3.15,2.61-.7,2.07-.24,4.06.61,5.63-.08.11-.12.29-.11.47Z"/>
  <g>
    <path class="cls-2" d="M50.26,10.5c0-.67-.56-1.21-1.25-1.21s-1.25.54-1.25,1.21.56,1.21,1.25,1.21,1.25-.54,1.25-1.21Z"/>
    <path class="cls-3" d="M53.07,8.26c.26-1.04.59-2.96-.57-3.62-1.16-.65-2.67.6-3.47,1.34-.8-.74-2.35-1.98-3.52-1.33-1.16.65-.8,2.55-.53,3.59-1.08.3-2.94.94-2.94,2.25s1.86,2.01,2.93,2.31c-.27,1.05-.61,2.92.55,3.57,1.17.65,2.72-.56,3.53-1.31.8.75,2.3,1.97,3.46,1.32,1.17-.65.86-2.55.59-3.6,1.04-.3,2.9-.98,2.9-2.28s-1.87-1.95-2.93-2.25ZM52.93,12.22c-.18-.54-.42-1.12-.71-1.72.28-.58.51-1.15.68-1.69.78.22,2.5.72,2.5,1.69s-1.65,1.48-2.47,1.72ZM52.2,15.88c-.87.49-2.16-.68-2.75-1.23.39-.42.79-.9,1.17-1.44.68-.06,1.31-.15,1.89-.28.19.74.56,2.47-.31,2.96ZM45.81,15.88c-.87-.48-.47-2.15-.27-2.92.57.12,1.21.21,1.88.26.39.53.79,1.01,1.2,1.44-.5.47-1.94,1.71-2.81,1.22ZM42.62,10.5c0-.98,1.71-1.48,2.5-1.7.17.55.4,1.13.68,1.71-.28.59-.51,1.18-.69,1.74-.76-.21-2.5-.77-2.5-1.75ZM45.8,5.16c.87-.49,2.22.7,2.8,1.24-.41.42-.81.9-1.19,1.43-.66.06-1.29.15-1.86.28-.22-.84-.62-2.46.25-2.95ZM51.05,8.45c.45.05.87.13,1.27.22-.12.37-.27.77-.45,1.17-.26-.47-.53-.93-.83-1.38ZM49.02,6.81c.28.29.55.61.82.96-.55-.03-1.1-.03-1.65,0,.27-.35.55-.67.83-.96ZM46.15,9.84c-.17-.4-.32-.79-.44-1.17.4-.09.82-.16,1.27-.21-.3.45-.57.91-.82,1.38ZM46.99,12.59c-.46-.05-.89-.12-1.29-.2.12-.39.28-.79.45-1.2.26.48.53.94.83,1.4ZM49.04,14.24c-.28-.3-.57-.62-.84-.98.55.02,1.11.02,1.66,0-.27.36-.55.69-.82.98ZM51.89,11.18c.19.41.34.81.47,1.19-.41.09-.84.16-1.3.22.3-.46.58-.93.83-1.41ZM50.29,12.65c-.85.06-1.7.06-2.54,0-.48-.68-.91-1.4-1.28-2.14.37-.74.79-1.46,1.27-2.14.85-.06,1.7-.06,2.55,0,.47.68.9,1.39,1.28,2.13-.37.74-.8,1.46-1.27,2.15ZM52.19,5.14c.87.49.48,2.22.29,2.97-.58-.13-1.21-.23-1.87-.29-.38-.53-.78-1.01-1.18-1.43.59-.55,1.89-1.74,2.76-1.25Z"/>
  </g>
</svg>